<svg width="339" height="175" viewBox="0 0 339 175" fill="none" xmlns="http://www.w3.org/2000/svg">
<path d="M93.9688 40.8125C93.9688 40.5 94.0729 40.2188 94.2812 39.9688C94.5104 39.6979 94.8021 39.5625 95.1562 39.5625C95.5104 39.5625 95.8021 39.6667 96.0312 39.875C96.0312 39.875 96.2917 40.1146 96.8125 40.5938C98.9792 42.4896 102.01 43.4375 105.906 43.4375C108.531 43.4375 110.219 42.8958 110.969 41.8125C111.177 41.5208 111.281 41.2292 111.281 40.9375C111.281 40.625 111.219 40.3333 111.094 40.0625C110.99 39.7708 110.75 39.4271 110.375 39.0312C110 38.6146 109.469 38.125 108.781 37.5625L106.031 35.3438C101.49 31.8021 98.375 28.9271 96.6875 26.7188C95.1458 24.6979 94.375 22.6354 94.375 20.5312C94.375 17.8854 95.5938 15.6667 98.0312 13.875C100.552 12 103.812 11.0625 107.812 11.0625C110.625 11.0625 112.844 11.3854 114.469 12.0312C116.094 12.6771 117.24 13.2708 117.906 13.8125C118.573 14.3333 118.906 14.8125 118.906 15.25C118.906 16.1458 118.552 16.5938 117.844 16.5938C117.51 16.5938 117.198 16.4792 116.906 16.25C116.635 16 116.083 15.5938 115.25 15.0312C114.417 14.4479 113.312 13.9896 111.938 13.6562C110.562 13.3229 109.281 13.1562 108.094 13.1562C106.906 13.1562 106.062 13.3438 105.562 13.7188C105.083 14.0938 104.844 14.4688 104.844 14.8438C104.844 15.1979 104.917 15.5417 105.062 15.875C105.208 16.1875 105.479 16.5625 105.875 17C106.792 18.0833 108.26 19.3646 110.281 20.8438C112.302 22.3229 114.01 23.6771 115.406 24.9062C116.802 26.1354 117.896 27.2708 118.688 28.3125C120.125 30.1875 120.844 32.0833 120.844 34C120.844 35.9167 120.49 37.5625 119.781 38.9375C119.073 40.2917 118.062 41.4583 116.75 42.4375C113.979 44.5417 110.281 45.5938 105.656 45.5938C101.948 45.5938 98.8542 44.8854 96.375 43.4688C94.7708 42.5729 93.9688 41.6875 93.9688 40.8125ZM157.406 37.4062C158.219 37.4062 158.625 37.7812 158.625 38.5312C158.625 39.0938 158.26 39.7604 157.531 40.5312C154.24 43.9062 149.729 45.5938 144 45.5938C138.854 45.5938 134.521 44.0417 131 40.9375C127.354 37.7083 125.531 33.625 125.531 28.6875C125.531 23.6458 127.177 19.5 130.469 16.25C133.948 12.7917 138.573 11.0625 144.344 11.0625C148.969 11.0625 152.854 12.4688 156 15.2812C159.396 18.3021 161.094 22.2708 161.094 27.1875C161.094 27.8958 161.073 28.6458 161.031 29.4375H140.406V42.8438C141.823 43.1354 143.417 43.2812 145.188 43.2812C148.938 43.2812 152.135 42.0417 154.781 39.5625C155.323 39.0208 155.708 38.5938 155.938 38.2812C156.417 37.6979 156.906 37.4062 157.406 37.4062ZM149.062 13.9375C147.708 13.5417 146.177 13.3438 144.469 13.3438C142.76 13.3438 141.406 13.4583 140.406 13.6875V27.1562H149.062V13.9375ZM169.031 11.625H182.469V21.4375C183.906 17.875 185.448 15.2604 187.094 13.5938C188.76 11.9062 190.427 11.0625 192.094 11.0625C193.031 11.0625 193.771 11.3125 194.312 11.8125C194.875 12.2917 195.156 12.8333 195.156 13.4375C195.156 14.0417 195.073 14.5208 194.906 14.875C194.74 15.2292 194.521 15.5312 194.25 15.7812C193.688 16.3021 193.156 16.5625 192.656 16.5625C191.865 16.5625 191.281 16.4792 190.906 16.3125C190.26 16.0208 189.688 15.875 189.188 15.875C188.688 15.875 188.052 16.2812 187.281 17.0938C186.51 17.8854 185.771 18.9896 185.062 20.4062C183.333 23.8646 182.469 27.6146 182.469 31.6562V45H169.031V11.625Z" fill="white"/>
<path d="M93.9688 137.812C93.9688 137.5 94.0729 137.219 94.2812 136.969C94.5104 136.698 94.8021 136.562 95.1562 136.562C95.5104 136.562 95.8021 136.667 96.0312 136.875C96.0312 136.875 96.2917 137.115 96.8125 137.594C98.9792 139.49 102.01 140.438 105.906 140.438C108.531 140.438 110.219 139.896 110.969 138.812C111.177 138.521 111.281 138.229 111.281 137.938C111.281 137.625 111.219 137.333 111.094 137.062C110.99 136.771 110.75 136.427 110.375 136.031C110 135.615 109.469 135.125 108.781 134.562L106.031 132.344C101.49 128.802 98.375 125.927 96.6875 123.719C95.1458 121.698 94.375 119.635 94.375 117.531C94.375 114.885 95.5938 112.667 98.0312 110.875C100.552 109 103.812 108.062 107.812 108.062C110.625 108.062 112.844 108.385 114.469 109.031C116.094 109.677 117.24 110.271 117.906 110.812C118.573 111.333 118.906 111.812 118.906 112.25C118.906 113.146 118.552 113.594 117.844 113.594C117.51 113.594 117.198 113.479 116.906 113.25C116.635 113 116.083 112.594 115.25 112.031C114.417 111.448 113.312 110.99 111.938 110.656C110.562 110.323 109.281 110.156 108.094 110.156C106.906 110.156 106.062 110.344 105.562 110.719C105.083 111.094 104.844 111.469 104.844 111.844C104.844 112.198 104.917 112.542 105.062 112.875C105.208 113.188 105.479 113.562 105.875 114C106.792 115.083 108.26 116.365 110.281 117.844C112.302 119.323 114.01 120.677 115.406 121.906C116.802 123.135 117.896 124.271 118.688 125.312C120.125 127.188 120.844 129.083 120.844 131C120.844 132.917 120.49 134.562 119.781 135.938C119.073 137.292 118.062 138.458 116.75 139.438C113.979 141.542 110.281 142.594 105.656 142.594C101.948 142.594 98.8542 141.885 96.375 140.469C94.7708 139.573 93.9688 138.688 93.9688 137.812ZM157.406 134.406C158.219 134.406 158.625 134.781 158.625 135.531C158.625 136.094 158.26 136.76 157.531 137.531C154.24 140.906 149.729 142.594 144 142.594C138.854 142.594 134.521 141.042 131 137.938C127.354 134.708 125.531 130.625 125.531 125.688C125.531 120.646 127.177 116.5 130.469 113.25C133.948 109.792 138.573 108.062 144.344 108.062C148.969 108.062 152.854 109.469 156 112.281C159.396 115.302 161.094 119.271 161.094 124.188C161.094 124.896 161.073 125.646 161.031 126.438H140.406V139.844C141.823 140.135 143.417 140.281 145.188 140.281C148.938 140.281 152.135 139.042 154.781 136.562C155.323 136.021 155.708 135.594 155.938 135.281C156.417 134.698 156.906 134.406 157.406 134.406ZM149.062 110.938C147.708 110.542 146.177 110.344 144.469 110.344C142.76 110.344 141.406 110.458 140.406 110.688V124.156H149.062V110.938ZM169.031 108.625H182.469V118.438C183.906 114.875 185.448 112.26 187.094 110.594C188.76 108.906 190.427 108.062 192.094 108.062C193.031 108.062 193.771 108.312 194.312 108.812C194.875 109.292 195.156 109.833 195.156 110.438C195.156 111.042 195.073 111.521 194.906 111.875C194.74 112.229 194.521 112.531 194.25 112.781C193.688 113.302 193.156 113.562 192.656 113.562C191.865 113.562 191.281 113.479 190.906 113.312C190.26 113.021 189.688 112.875 189.188 112.875C188.688 112.875 188.052 113.281 187.281 114.094C186.51 114.885 185.771 115.99 185.062 117.406C183.333 120.865 182.469 124.615 182.469 128.656V142H169.031V108.625Z" fill="white"/>
<path d="M108.688 73.9062L105.25 74.0938C104.75 74.0938 104.333 73.9688 104 73.7188C103.688 73.4688 103.531 73.1458 103.531 72.75C103.531 71.8333 104.104 71.375 105.25 71.375C105.25 71.375 106.74 71.4688 109.719 71.6562H113L117.969 71.375C119.156 71.375 119.75 71.8333 119.75 72.75C119.75 73.6458 119.115 74.0938 117.844 74.0938C117.49 74.0938 117.156 74.0833 116.844 74.0625L115.875 74C115.312 73.9375 114.479 73.9062 113.375 73.9062C111.812 73.9062 110.25 73.9062 108.688 73.9062ZM157.969 85.4062C158.781 85.4062 159.188 85.7812 159.188 86.5312C159.188 87.0938 158.823 87.7604 158.094 88.5312C154.802 91.9062 150.292 93.5938 144.562 93.5938C139.417 93.5938 135.083 92.0417 131.562 88.9375C127.917 85.7083 126.094 81.625 126.094 76.6875C126.094 71.6458 127.74 67.5 131.031 64.25C134.51 60.7917 139.135 59.0625 144.906 59.0625C149.531 59.0625 153.417 60.4688 156.562 63.2812C159.958 66.3021 161.656 70.2708 161.656 75.1875C161.656 75.8958 161.635 76.6458 161.594 77.4375H140.969V90.8438C142.385 91.1354 143.979 91.2812 145.75 91.2812C149.5 91.2812 152.698 90.0417 155.344 87.5625C155.885 87.0208 156.271 86.5938 156.5 86.2812C156.979 85.6979 157.469 85.4062 157.969 85.4062ZM149.625 61.9375C148.271 61.5417 146.74 61.3438 145.031 61.3438C143.323 61.3438 141.969 61.4583 140.969 61.6875V75.1562H149.625V61.9375ZM172.375 73.9062L168.938 74.0938C168.438 74.0938 168.021 73.9688 167.688 73.7188C167.375 73.4688 167.219 73.1458 167.219 72.75C167.219 71.8333 167.792 71.375 168.938 71.375C168.938 71.375 170.427 71.4688 173.406 71.6562H176.688L181.656 71.375C182.844 71.375 183.438 71.8333 183.438 72.75C183.438 73.6458 182.802 74.0938 181.531 74.0938C181.177 74.0938 180.844 74.0833 180.531 74.0625L179.562 74C179 73.9375 178.167 73.9062 177.062 73.9062C175.5 73.9062 173.938 73.9062 172.375 73.9062Z" fill="white"/>
<path d="M44 147.507C42.962 118.446 39.4454 102.731 24 76.5074" stroke="white" stroke-width="2" stroke-linecap="round"/>
<path d="M45 148.007C34.2288 106.449 26.7969 84.7536 1 60.5074" stroke="white" stroke-width="2" stroke-linecap="round"/>
<path d="M2.5 61.0074C23.6916 67.8768 33.6695 74.7182 42.5 101.007" stroke="white" stroke-width="2" stroke-linecap="round"/>
<path d="M42.5 100.007C41.326 77.0446 41.0163 64.8415 42.5 47.0074" stroke="white" stroke-width="2" stroke-linecap="round"/>
<path d="M42.5 47.0074C42.8398 42.1628 43.3022 39.5454 44.5 35.0074" stroke="white" stroke-width="2" stroke-linecap="round"/>
<path d="M40.717 5.89022C48.7643 14.6742 47.7117 24.5444 45.064 41.5592C44.8686 42.8144 43.5639 43.5788 42.383 43.1108C37.2929 41.0939 34.0988 39.4001 29.9626 35.4C25.7563 30.7592 26.0321 23.3459 30.7707 3.46189C31.0696 2.2074 32.4657 1.55968 33.6154 2.14396L40.1641 5.47209C40.3707 5.57708 40.5604 5.71935 40.717 5.89022Z" fill="#978D07"/>
<path d="M41.1537 7.22887C47.4105 14.0907 47.2418 23.4177 44.3072 42.5501C44.2598 42.8586 44.1357 43.1562 43.964 43.4168C42.8654 45.085 44.7246 43.6253 56.1062 33.0591C56.1868 32.9843 56.2653 32.8986 56.3323 32.8114C61.4056 26.2097 63.0544 21.615 63.9927 12.1079C64.2294 -1.01228 58.6171 6.76093 57.6417 12.1079C56.6832 17.362 50.0706 0.138008 46.5356 0.000823513C46.4113 -0.00399921 46.2911 0.0295301 46.1738 0.0710541C44.0485 0.823863 42.729 1.95732 40.8925 4.6798C40.3588 5.47095 40.5107 6.52368 41.1537 7.22887Z" fill="#FFE65B"/>
</svg>
