<svg width="248" height="100" viewBox="0 0 248 100" fill="none" xmlns="http://www.w3.org/2000/svg">
<path d="M18.25 65.5938C10.0833 65.5938 6 61.8646 6 54.4062L5.96875 33.9062L2.375 34.0625C1.25 34.0625 0.6875 33.6354 0.6875 32.7812C0.6875 31.9271 1.29167 31.5 2.5 31.5L5.5 31.625H5.96875V26.7812L19.375 20.7812V31.625H23.5625L26.5312 31.5C27.7604 31.5 28.375 31.9375 28.375 32.8125C28.375 33.2083 28.1979 33.5208 27.8438 33.75C27.5104 33.9583 27.125 34.0625 26.6875 34.0625L22.8125 33.9062H19.375V63.2812C21.8125 63.2396 23.8438 62.5417 25.4688 61.1875C26.2396 60.6042 26.7812 59.8542 27.0938 58.9375C27.4271 58.0208 27.7188 57.4375 27.9688 57.1875C28.2396 56.9167 28.5521 56.7812 28.9062 56.7812C29.2604 56.7812 29.5625 56.9271 29.8125 57.2188C30.0625 57.4896 30.1875 57.8229 30.1875 58.2188C30.1875 58.5938 30.0833 59.0208 29.875 59.5C29.6667 59.9583 29.3542 60.4479 28.9375 60.9688C28 62.1354 26.9167 63.0625 25.6875 63.75C23.4583 64.9792 20.9792 65.5938 18.25 65.5938ZM46.4688 65.5938C39.1562 65.5938 35.5 62.0208 35.5 54.875V31.625H48.875V62.2188C49.0833 62.3229 49.3438 62.375 49.6562 62.375H50.6875C52.3542 62.375 54.3333 61.25 56.625 59C57.3125 58.3125 57.9583 57.5625 58.5625 56.75V31.625H72V65H58.5625V60.1875C55.1667 63.7917 51.1354 65.5938 46.4688 65.5938Z" fill="#4D4D4D"/>
<path d="M142.969 29.1562C140.823 29.1562 139.146 28.6771 137.938 27.7188C136.729 26.7604 136.125 25.5 136.125 23.9375C136.125 22.625 136.792 21.5 138.125 20.5625C139.542 19.5625 141.042 19.0625 142.625 19.0625C144.208 19.0625 145.427 19.2188 146.281 19.5312C147.156 19.8438 147.896 20.25 148.5 20.75C149.708 21.7708 150.312 22.9583 150.312 24.3125C150.312 25.6667 149.625 26.8125 148.25 27.75C146.875 28.6875 145.115 29.1562 142.969 29.1562ZM136.406 34.625H149.844V68H136.406V34.625ZM181.344 68.5938C178.448 68.5938 175.646 67.9375 172.938 66.625V78H160.094V34.625H172.938V36.3438C175.667 34.8229 178.458 34.0625 181.312 34.0625C184.167 34.0625 186.688 34.4896 188.875 35.3438C191.062 36.1979 192.938 37.375 194.5 38.875C197.729 42.0417 199.344 46.0938 199.344 51.0312C199.344 56.0104 197.75 60.1458 194.562 63.4375C191.271 66.875 186.865 68.5938 181.344 68.5938ZM181.25 36.3438C178.167 36.3438 175.396 37.1979 172.938 38.9062V63.8438C175.75 65.4688 178.812 66.2812 182.125 66.2812H182.938C183.188 66.2812 183.427 66.2604 183.656 66.2188V36.5312C182.865 36.4062 182.062 36.3438 181.25 36.3438ZM228.25 65.9375C225.583 67.7083 222.625 68.5938 219.375 68.5938C215.062 68.5938 211.604 67.5104 209 65.3438C206.292 63.1146 204.938 60.0208 204.938 56.0625C204.938 52.5625 206.281 49.6875 208.969 47.4375C211.719 45.1667 215.333 44.0312 219.812 44.0312C222.812 44.0312 225.625 44.6042 228.25 45.75V37.1562C226.354 36.6146 224.677 36.3438 223.219 36.3438C221.781 36.3438 220.562 36.4062 219.562 36.5312C218.562 36.6562 217.615 36.8438 216.719 37.0938C214.781 37.6354 213.312 38.3646 212.312 39.2812C211.729 39.8229 211.198 40.0938 210.719 40.0938C210.24 40.0938 209.875 39.9792 209.625 39.75C209.375 39.5 209.25 39.2292 209.25 38.9375C209.25 38.6458 209.302 38.3854 209.406 38.1562C209.51 37.9062 209.708 37.6562 210 37.4062C210.625 36.8646 211.667 36.3229 213.125 35.7812C216.146 34.6354 219.177 34.0625 222.219 34.0625C231.469 34.0625 237.375 36.2708 239.938 40.6875C241.062 42.6458 241.625 45.2188 241.625 48.4062V68H228.25V65.9375ZM228.25 48.1875C225.625 46.9167 223.01 46.2812 220.406 46.2812C219.99 46.2812 219.594 46.3125 219.219 46.375V66.25C219.323 66.2708 219.438 66.2812 219.562 66.2812C219.688 66.2812 219.812 66.2812 219.938 66.2812C222.792 66.2812 225.562 65.2708 228.25 63.25V48.1875Z" fill="#4D4D4D"/>
<path d="M96.6667 98.3383C97.3587 78.9642 99.7031 68.4872 110 51.0049" stroke="#4D4D4D" stroke-width="2" stroke-linecap="round"/>
<path d="M96 98.6716C103.181 70.966 108.135 56.5024 125.333 40.3383" stroke="#4D4D4D" stroke-width="2" stroke-linecap="round"/>
<path d="M124.333 40.6716C110.206 45.2512 103.554 49.8122 97.6666 67.3383" stroke="#4D4D4D" stroke-width="2" stroke-linecap="round"/>
<path d="M97.6667 66.6716C96.884 51.3631 96.6776 43.2277 97.6667 31.3383" stroke="#4D4D4D" stroke-width="2" stroke-linecap="round"/>
<path d="M97.6667 31.3383C97.8932 28.1086 98.2015 26.3636 99 23.3383" stroke="#4D4D4D" stroke-width="2" stroke-linecap="round"/>
<path d="M96.5568 4.01347C101.708 9.70682 101.163 16.1017 99.5014 26.8961C99.3081 28.1516 98.0009 28.9167 96.8263 28.433C93.8636 27.2129 91.8535 26.0614 89.3084 23.6C86.5626 20.5706 86.6817 15.7689 89.6537 3.12494C89.9488 1.86954 91.3442 1.22637 92.4939 1.81065L96.0053 3.59519C96.2119 3.70017 96.4014 3.84164 96.5568 4.01347Z" fill="#EE59DD"/>
<path d="M97.1294 5.23116C100.916 9.74948 100.771 15.9376 98.8955 28.2093C98.8484 28.5178 98.7173 28.8119 98.5573 29.0798C98.0336 29.9568 99.4806 28.7757 106.696 22.0777C106.777 22.0028 106.855 21.9176 106.922 21.8303C110.278 17.4527 111.372 14.3889 111.995 8.07194C112.153 -0.674855 108.411 4.50728 107.761 8.07194C107.128 11.5437 102.791 0.293894 100.42 0.00562849C100.297 -0.0093793 100.174 0.0259091 100.057 0.068349C98.7965 0.526095 97.9602 1.19805 96.9071 2.66995C96.3518 3.44609 96.5164 4.49971 97.1294 5.23116Z" fill="#F1AFDD"/>
</svg>
